# xmcd
#
# Track frame offsets:
#	150
#	12630
#	27237
#	43752
#	60622
#	75027
#	90472
#	109667
#	126100
#	139085
#	151615
#
# Disc length: 2235 seconds
#
# Revision: 1
# Processed by: cddbd v1.5.1PL0 Copyright (c) Steve Scherf et al.
# Submitted via: EasyCDDAExtractor 6.5.7.1
#
DISCID=7b08b90b
DTITLE=Various Artist - Rodeio Gaúcho
DYEAR=1900
DGENRE=Gaúcha
TTITLE0=Oswaldir e Carlos Magrão - Rodeio de Vacaria
TTITLE1=Os Tiranos - Rodeio da Saudade
TTITLE2=Fogo de Chão - Dia de Rodeio
TTITLE3=Candeeiro - Todo Mundo Veio Pro Rodeio
TTITLE4=Tchê Garotos - Um Dia de Rodeio
TTITLE5=Grupo Rodeio - Domador
TTITLE6=Chiquito e Grupo Bordoneio - Rodeio de Taura
TTITLE7=Os Campeiros - Fim de Semana tem Rodeio
TTITLE8=Os Tiranos - Nos tempos de Rodeio
TTITLE9=Grupo Manotaço - De Rodeio À Rodeio
TTITLE10=Gaudérios do Vale - Rodeio do Rincão do Pirapó
EXTD=
EXTT0=
EXTT1=
EXTT2=
EXTT3=
EXTT4=
EXTT5=
EXTT6=
EXTT7=
EXTT8=
EXTT9=
EXTT10=
PLAYORDER=
